<svg width="33" height="33" viewBox="0 0 33 33" fill="none" xmlns="http://www.w3.org/2000/svg">
<rect width="33" height="33" fill="#E3B873"/>
<path d="M1.12731 7.17699L2.75318 5.55112L2.75318 29.3098L2.75318 29.4348L2.87818 29.4348L3.6681 29.4348L3.7931 29.4348L3.7931 29.3098L3.79309 5.55112L5.41897 7.17699C5.62202 7.38005 5.95124 7.38005 6.1543 7.17699C6.35735 6.97393 6.35735 6.64472 6.1543 6.44166L3.6408 3.92816C3.43775 3.72511 3.10853 3.72511 2.90547 3.92816L0.391976 6.44166C0.18892 6.64472 0.18892 6.97393 0.391976 7.17699C0.595033 7.38005 0.924251 7.38005 1.12731 7.17699Z" fill="white" stroke="white" stroke-width="0.25"/>
<path d="M25.249 26.7629L26.8831 28.3885L3 28.3885H2.875V28.5135V29.3034V29.4284H3L26.8831 29.4284L25.249 31.0541C25.0448 31.2572 25.0448 31.5867 25.249 31.7898C25.4528 31.9926 25.783 31.9926 25.9868 31.7898L28.5134 29.2763C28.7175 29.0732 28.7175 28.7437 28.5134 28.5406L25.9868 26.0271C25.783 25.8243 25.4528 25.8243 25.249 26.0271C25.0448 26.2302 25.0448 26.5597 25.249 26.7629Z" fill="white" stroke="white" stroke-width="0.25"/>
<path fill-rule="evenodd" clip-rule="evenodd" d="M3 1.38187C3 1.17097 3.17823 1 3.3981 1H32.0612C32.2811 1 32.4593 1.17097 32.4593 1.38187V29.0039C32.4593 29.2148 32.2811 29.3858 32.0612 29.3858C31.8413 29.3858 31.6631 29.2148 31.6631 29.0039V1.76374H3.3981C3.17823 1.76374 3 1.59277 3 1.38187Z" fill="white" stroke="white" stroke-width="0.5" stroke-linecap="round" stroke-linejoin="round"/>
<path fill-rule="evenodd" clip-rule="evenodd" d="M15.4137 2.11568C15.568 2.26992 15.568 2.51999 15.4137 2.67423L10.6742 7.41373C10.52 7.56797 10.2699 7.56797 10.1157 7.41373C9.96144 7.25949 9.96144 7.00941 10.1157 6.85517L14.8552 2.11568C15.0094 1.96144 15.2595 1.96144 15.4137 2.11568Z" fill="white" stroke="white" stroke-width="0.5" stroke-linecap="round" stroke-linejoin="round"/>
<path fill-rule="evenodd" clip-rule="evenodd" d="M32.3185 1.11568C32.4727 1.26992 32.4727 1.51999 32.3185 1.67423L9.67423 24.3185C9.51999 24.4727 9.26992 24.4727 9.11568 24.3185C8.96144 24.1642 8.96144 23.9142 9.11568 23.7599L31.7599 1.11568C31.9142 0.96144 32.1642 0.96144 32.3185 1.11568Z" fill="white" stroke="white" stroke-width="0.5" stroke-linecap="round" stroke-linejoin="round"/>
<path fill-rule="evenodd" clip-rule="evenodd" d="M32.133 7.11794C32.286 7.27342 32.284 7.52349 32.1285 7.67648L15.672 23.8697C15.5165 24.0227 15.2664 24.0207 15.1134 23.8652C14.9604 23.7098 14.9625 23.4597 15.1179 23.3067L31.5745 7.11344C31.73 6.96045 31.9801 6.96246 32.133 7.11794Z" fill="white" stroke="white" stroke-width="0.5" stroke-linecap="round" stroke-linejoin="round"/>
<path fill-rule="evenodd" clip-rule="evenodd" d="M26.133 2.11794C26.286 2.27342 26.284 2.52349 26.1285 2.67648L9.67197 18.8697C9.51649 19.0227 9.26643 19.0207 9.11344 18.8652C8.96045 18.7098 8.96246 18.4597 9.11794 18.3067L25.5745 2.11344C25.73 1.96045 25.9801 1.96246 26.133 2.11794Z" fill="white" stroke="white" stroke-width="0.5" stroke-linecap="round" stroke-linejoin="round"/>
<path fill-rule="evenodd" clip-rule="evenodd" d="M31.6798 13.1157C31.8341 13.2699 31.8341 13.52 31.6798 13.6742L21.6742 23.6798C21.52 23.8341 21.2699 23.8341 21.1157 23.6798C20.9614 23.5256 20.9614 23.2755 21.1157 23.1213L31.1213 13.1157C31.2755 12.9614 31.5256 12.9614 31.6798 13.1157Z" fill="white" stroke="white" stroke-width="0.5" stroke-linecap="round" stroke-linejoin="round"/>
<path fill-rule="evenodd" clip-rule="evenodd" d="M20.6798 2.11568C20.8341 2.26992 20.8341 2.51999 20.6798 2.67423L10.6742 12.6798C10.52 12.8341 10.2699 12.8341 10.1157 12.6798C9.96144 12.5256 9.96144 12.2755 10.1157 12.1213L20.1213 2.11568C20.2755 1.96144 20.5256 1.96144 20.6798 2.11568Z" fill="white" stroke="white" stroke-width="0.5" stroke-linecap="round" stroke-linejoin="round"/>
<path fill-rule="evenodd" clip-rule="evenodd" d="M31.4137 18.1157C31.568 18.2699 31.568 18.52 31.4137 18.6742L26.6742 23.4137C26.52 23.568 26.2699 23.568 26.1157 23.4137C25.9614 23.2595 25.9614 23.0094 26.1157 22.8552L30.8552 18.1157C31.0094 17.9614 31.2595 17.9614 31.4137 18.1157Z" fill="white" stroke="white" stroke-width="0.5" stroke-linecap="round" stroke-linejoin="round"/>
</svg>
