<svg width="30" height="30" viewBox="0 0 30 30" fill="none" xmlns="http://www.w3.org/2000/svg">
<rect width="30" height="30" fill="#3D3F38"/>
<circle cx="15" cy="15" r="15" fill="#E3B873"/>
<path d="M18 9H12C10.3431 9 9 10.3431 9 12V18C9 19.6569 10.3431 21 12 21H18C19.6569 21 21 19.6569 21 18V12C21 10.3431 19.6569 9 18 9Z" stroke="white" stroke-width="1.5"/>
<path d="M16.9784 14.7066C17.0401 15.1228 16.969 15.5477 16.7752 15.9211C16.5815 16.2945 16.2749 16.5973 15.8992 16.7865C15.5234 16.9756 15.0976 17.0414 14.6823 16.9746C14.2669 16.9078 13.8832 16.7117 13.5858 16.4142C13.2883 16.1168 13.0922 15.7331 13.0254 15.3177C12.9586 14.9024 13.0244 14.4766 13.2135 14.1008C13.4027 13.7251 13.7055 13.4185 14.0789 13.2248C14.4523 13.031 14.8772 12.9599 15.2934 13.0216C15.7178 13.0846 16.1108 13.2824 16.4142 13.5858C16.7176 13.8892 16.9154 14.2822 16.9784 14.7066Z" stroke="white" stroke-width="1.5" stroke-linecap="round" stroke-linejoin="round"/>
</svg>
