<svg width="6" height="6" viewBox="0 0 6 6" fill="none" xmlns="http://www.w3.org/2000/svg">
<path d="M4.97836 2.70663C5.04007 3.12276 4.96899 3.54774 4.77524 3.92114C4.5815 4.29454 4.27494 4.59734 3.89918 4.78647C3.52342 4.9756 3.09759 5.04143 2.68226 4.9746C2.26693 4.90776 1.88325 4.71167 1.58579 4.41421C1.28833 4.11675 1.09224 3.73307 1.0254 3.31774C0.958571 2.90241 1.0244 2.47658 1.21353 2.10082C1.40266 1.72506 1.70546 1.41851 2.07886 1.22476C2.45226 1.03101 2.87724 0.959929 3.29337 1.02164C3.71783 1.08458 4.11079 1.28237 4.41421 1.58579C4.71763 1.88921 4.91542 2.28217 4.97836 2.70663Z" stroke="white" stroke-width="1.5" stroke-linecap="round" stroke-linejoin="round"/>
</svg>
